<svg width="32" height="31" viewBox="0 0 32 31" fill="none" xmlns="http://www.w3.org/2000/svg">
<path d="M22 19.0022C22 19.2988 21.912 19.5888 21.7472 19.8355C21.5824 20.0822 21.3481 20.2744 21.074 20.388C20.7999 20.5015 20.4983 20.5312 20.2074 20.4733C19.9164 20.4155 19.6491 20.2726 19.4393 20.0628C19.2296 19.853 19.0867 19.5858 19.0288 19.2948C18.9709 19.0038 19.0007 18.7022 19.1142 18.4281C19.2277 18.154 19.42 17.9198 19.6667 17.7549C19.9133 17.5901 20.2033 17.5022 20.5 17.5022C20.8978 17.5022 21.2794 17.6602 21.5607 17.9415C21.842 18.2228 22 18.6043 22 19.0022ZM11.5 17.5022C11.2033 17.5022 10.9133 17.5901 10.6667 17.7549C10.42 17.9198 10.2277 18.154 10.1142 18.4281C10.0007 18.7022 9.97095 19.0038 10.0288 19.2948C10.0867 19.5858 10.2296 19.853 10.4393 20.0628C10.6491 20.2726 10.9164 20.4155 11.2074 20.4733C11.4983 20.5312 11.7999 20.5015 12.074 20.388C12.3481 20.2744 12.5824 20.0822 12.7472 19.8355C12.912 19.5888 13 19.2988 13 19.0022C13 18.6043 12.842 18.2228 12.5607 17.9415C12.2794 17.6602 11.8978 17.5022 11.5 17.5022ZM30 20.5022V23.5022C30 24.0326 29.7893 24.5413 29.4142 24.9164C29.0391 25.2914 28.5304 25.5022 28 25.5022H4.00001C3.46957 25.5022 2.96087 25.2914 2.58579 24.9164C2.21072 24.5413 2.00001 24.0326 2.00001 23.5022V20.6434C1.99822 18.7157 2.38973 16.8078 3.15058 15.0366C3.91143 13.2654 5.02562 11.668 6.42501 10.3422L3.29251 7.20965C3.10487 7.02201 2.99945 6.76752 2.99945 6.50215C2.99945 6.23679 3.10487 5.98229 3.29251 5.79465C3.48015 5.60701 3.73464 5.5016 4.00001 5.5016C4.26537 5.5016 4.51987 5.60701 4.70751 5.79465L7.97751 9.06465C10.3254 7.40149 13.1308 6.50628 16.0081 6.50202C18.8854 6.49777 21.6934 7.38469 24.0463 9.0409L27.2963 5.7909C27.4839 5.60326 27.7384 5.49785 28.0038 5.49785C28.2691 5.49785 28.5236 5.60326 28.7113 5.7909C28.8989 5.97854 29.0043 6.23304 29.0043 6.4984C29.0043 6.76377 28.8989 7.01826 28.7113 7.2059L25.6025 10.3147C25.6963 10.4034 25.79 10.4934 25.8825 10.5859C27.1918 11.8834 28.23 13.4282 28.9369 15.1306C29.6438 16.833 30.0051 18.6589 30 20.5022ZM28 20.5022C28 17.3196 26.7357 14.2673 24.4853 12.0169C22.2348 9.76643 19.1826 8.50215 16 8.50215H15.9575C9.36376 8.52465 4.00001 13.9709 4.00001 20.6434V23.5022H28V20.5022Z" fill="black"/>
</svg>
